<mxfile host="app.diagrams.net" modified="2024-01-04T04:49:36.775Z" agent="Mozilla/5.0 (Macintosh; Intel Mac OS X 10_15_7) AppleWebKit/537.36 (KHTML, like Gecko) Chrome/114.0.0.0 Safari/537.36" version="22.1.16" etag="EmwlRQtyYmQcPcxosEZi" type="github">
  <diagram name="第 1 页" id="jUkanP52xmiPVMnl7bYo">
    <mxGraphModel>
      <root>
        <mxCell id="0" />
        <mxCell id="1" parent="0" />
      </root>
    </mxGraphModel>
  </diagram>
</mxfile>
